<?xml version="1.0" encoding="UTF-8" standalone="no"?>
<!-- Created with Inkscape (http://www.inkscape.org/) -->

<svg
   xmlns:dc="http://purl.org/dc/elements/1.1/"
   xmlns:cc="http://creativecommons.org/ns#"
   xmlns:rdf="http://www.w3.org/1999/02/22-rdf-syntax-ns#"
   xmlns:svg="http://www.w3.org/2000/svg"
   xmlns="http://www.w3.org/2000/svg"
   xmlns:sodipodi="http://sodipodi.sourceforge.net/DTD/sodipodi-0.dtd"
   xmlns:inkscape="http://www.inkscape.org/namespaces/inkscape"
   sodipodi:docname="rocket.svg"
   viewBox="0 0 129.06667 44.799999"
   height="44.799999"
   width="129.06667"
   id="svg2"
   version="1.1"
   inkscape:version="0.92.3 (2405546, 2018-03-11)">
  <metadata
     id="metadata8">
    <rdf:RDF>
      <cc:Work
         rdf:about="">
        <dc:format>image/svg+xml</dc:format>
        <dc:type
           rdf:resource="http://purl.org/dc/dcmitype/StillImage" />
        <dc:title />
      </cc:Work>
    </rdf:RDF>
  </metadata>
  <defs
     id="defs6" />
  <sodipodi:namedview
     inkscape:current-layer="svg2"
     inkscape:window-maximized="1"
     inkscape:window-y="24"
     inkscape:window-x="65"
     inkscape:cy="22.510031"
     inkscape:cx="68.741177"
     inkscape:zoom="6.0681678"
     showgrid="false"
     id="namedview4"
     inkscape:window-height="744"
     inkscape:window-width="1301"
     inkscape:pageshadow="2"
     inkscape:pageopacity="0"
     guidetolerance="10"
     gridtolerance="10"
     objecttolerance="10"
     borderopacity="1"
     bordercolor="#666666"
     pagecolor="#ffffff"
     showguides="true"
     inkscape:guide-bbox="true" />
  <rect
     style="opacity:1;fill:#0088aa;fill-opacity:1;stroke-width:1.65966308"
     id="rect4534"
     width="130.42996"
     height="44.923225"
     x="-1.5497293"
     y="0.2403421" />
  <text
     xml:space="preserve"
     style="font-style:normal;font-weight:normal;font-size:29.15318489px;line-height:1.25;font-family:sans-serif;letter-spacing:0px;word-spacing:0px;fill:#000000;fill-opacity:1;stroke:none;stroke-width:0.72882956"
     x="6.371213"
     y="26.087934"
     id="text4538"
     transform="scale(0.89721046,1.1145657)"><tspan
       sodipodi:role="line"
       id="tspan4536"
       x="6.371213"
       y="26.087934"
       style="font-style:normal;font-variant:normal;font-weight:normal;font-stretch:normal;font-size:23.19875336px;font-family:'DejaVu Serif';-inkscape-font-specification:'DejaVu Serif';fill:#ffffff;stroke-width:0.72882956">E-L    brary</tspan></text>
  <g
     id="g5481"
     transform="matrix(0.02652653,-0.02158776,0.02482486,0.02778538,-82.66727,44.906762)">
    <g
       id="g5311"
       transform="matrix(5.9937372,0.1293177,0.15576614,5.9483159,-1141.4103,-1360.2866)" />
    <path
       id="path5313"
       d="m 3787.4975,1690.76 -141.0617,-118.51 -290.1695,321.594 141.0618,118.5101 z"
       style="fill:#ec4b53;stroke-width:2.59737539"
       inkscape:connector-curvature="0" />
    <path
       id="path5315"
       d="m 3472.457,2039.9189 -141.0617,-118.5102 24.8689,-27.5774 141.0617,118.5101 -24.8822,27.5771 z"
       style="fill:#ffffff;stroke-width:2.59737539"
       inkscape:connector-curvature="0" />
    <path
       id="path5317"
       d="m 3472.457,2039.9189 -141.0617,-118.5102 -36.395,40.337 c -6.6501,7.3551 -4.515,19.7235 4.7159,27.4894 l 107.4953,90.31 c 9.2286,7.7534 22.216,8.0789 28.8527,0.7234 l 36.395,-40.3369 z"
       style="fill:#15bdb1;stroke-width:2.59737539"
       inkscape:connector-curvature="0" />
    <path
       id="path5319"
       d="m 3748.8118,1658.2481 -63.6774,-53.4885 -290.169,321.5966 63.6775,53.4886 z"
       style="fill:#ff5b61;stroke-width:2.59737539"
       inkscape:connector-curvature="0" />
    <path
       id="path5321"
       d="m 3787.4975,1690.76 -141.0617,-118.51 118.7933,-43.1881 50.2623,42.2159 -27.9805,119.4826 z"
       style="fill:#f0b97d;stroke-width:2.59737539"
       inkscape:connector-curvature="0" />
    <path
       id="path5323"
       d="m 3827.1911,1514.0614 -4.8439,-4.0695 -57.1181,19.07 50.2623,42.2159 11.7148,-57.2059 z"
       style="fill:#807d7d;stroke-width:2.59737539"
       inkscape:connector-curvature="0" />
    <path
       id="path5325"
       d="m 3748.8118,1658.2481 -63.6774,-53.4885 93.8949,-64.1169 22.6851,19.0498 -52.8923,98.5535 -0.01,-2e-4 z"
       style="fill:#fed198;stroke-width:2.59737539"
       inkscape:connector-curvature="0" />
    <g
       id="g5331"
       transform="matrix(2.6673551,0.06686875,0.43576632,2.540156,2505.9889,1401.2564)">
      <path
         id="path5327"
         d="m 365.326,277.108 c 0,0 1.746,7.279 -11.879,18.355 -13.625,11.076 -25.745,13.782 -25.745,13.782 0,0 2.707,-12.115 13.782,-25.745 11.076,-13.63 18.355,-11.879 18.355,-11.879 l 3.173,2.319 z"
         style="fill:#ffba1b"
         inkscape:connector-curvature="0" />
      <path
         id="path5329"
         d="m 386.439,250.088 -1.048,-69.9 -43.333,43.329 20.812,52.331 z"
         style="fill:#ffba1b"
         inkscape:connector-curvature="0" />
    </g>
    <path
       id="path5333"
       d="m 3677.9856,2081.6593 -1.148,1.0334 -1.1677,1.0583 -1.1899,1.0679 -1.2233,1.0898 -1.2451,1.1018 -1.2546,1.1244 v 0 l -1.2658,1.1368 -1.2982,1.1487 -1.3098,1.1583 v 0 l -1.3316,1.1706 -1.3449,1.1701 v 0 l -1.3545,1.1928 -1.3544,1.1927 -1.3761,1.2048 -1.3763,1.2049 v 0 l -1.3891,1.1919 v 0 l -1.3868,1.2045 -1.3985,1.2144 -1.3869,1.2046 v 0 l -1.4002,1.2042 v 0 l -1.4003,1.2042 -1.389,1.1919 -0.011,0.013 -1.389,1.1918 v 0 l -1.3784,1.1921 -1.3806,1.1794 9e-4,0.013 -1.3673,1.1798 v 0 l -1.3711,1.1569 v 0.013 l -1.3603,1.1573 -1.3361,1.1451 v 0 l -1.3271,1.1353 -1.3159,1.1227 v 0 l -1.2958,1.1006 -0.013,8e-4 -1.274,1.0885 -1.2512,1.0663 -1.2423,1.0564 8e-4,0.013 -1.2111,1.0218 -0.013,-1e-4 -1.1893,1.0097 -1.1648,0.9977 -1.1463,0.9652 -0.011,0.013 -1.1134,0.9408 -1.0933,0.9185 v 0 l -1.0493,0.897 v 0 l -1.0179,0.8622 -0.013,7e-4 -0.9845,0.8404 v 0 l -0.9534,0.8057 v 0 l -0.9199,0.7838 -0.878,0.7494 v 0 l -0.8335,0.7151 v 0 l -0.8022,0.6804 v 0 l -0.7619,0.636 v 0 l -0.7051,0.6121 h -0.013 l -0.6755,0.5672 v 0 l -0.6359,0.5203 -0.5775,0.4888 v 0 l -0.5355,0.4546 -0.013,-10e-5 -0.4842,0.3975 v 0 l -0.429,0.3636 v 0 l -0.3626,0.3172 h -0.013 l -0.3247,0.2599 v 0 l -0.2666,0.226 v 0 l -0.2153,0.1691 v 0 l -0.1512,0.1252 -0.098,0.078 v 0 l -0.033,0.022 8e-4,0.013 -19.078,-16.028 -19.0887,-16.0283 c 0,0 30.9486,-45.9061 50.0586,-71.9561 9.9728,-13.5925 45.9031,-33.3227 63.7249,-16.9544 0.2971,0.23 0.5958,0.4702 0.8818,0.7125 0.2859,0.2425 0.5608,0.4821 0.8244,0.734 v 0 c 0.2636,0.252 0.5295,0.5166 0.7825,0.7683 0.2552,0.2643 0.4939,0.5257 0.7267,0.7997 0.2436,0.2742 0.4738,0.5481 0.6805,0.8239 0.2197,0.2736 0.428,0.5595 0.6386,0.8582 v 0 c 0.2085,0.286 0.4052,0.5818 0.5919,0.8799 v 0.013 l 0.5478,0.9016 c 0.175,0.3079 0.3392,0.6155 0.503,0.9357 l 0.4677,0.9451 v 0 l 0.4256,0.9793 v 0 l 0.3798,0.9908 9e-4,0.013 c 0.1177,0.3293 0.2265,0.6709 0.3312,1.0024 v 0 l 0.2996,1.0344 0.2538,1.0458 v 0 l 0.2204,1.0678 v 0 l 0.1713,1.0793 v 0 l 0.15,1.0913 v 0 l 0.1143,1.1005 9e-4,0.013 0.075,1.1126 v 0 l 0.033,1.1213 0.014,1.1459 -0.024,1.1452 v 0 l -0.046,1.1548 -0.081,1.1664 -0.1186,1.1656 -0.1304,1.1753 -0.1677,1.1744 v 0 l -0.2019,1.1761 -0.2158,1.1732 v 0 l -0.2397,1.1726 9e-4,0.013 -0.2771,1.1717 -0.2904,1.1714 9e-4,0.013 -0.3144,1.1708 -0.338,1.1727 -0.3534,1.1596 0.013,-7e-4 -0.3797,1.1464 -0.393,1.1459 -0.4187,1.1353 -0.4343,1.1222 -0.4471,1.1092 -0.4622,1.0988 -0.4883,1.0855 8e-4,0.013 -0.4902,1.0754 -0.5056,1.0622 -0.5203,1.0391 -0.5357,1.026 -0.538,1.0135 -0.5436,0.9803 -0.559,0.9674 -0.5737,0.9441 -0.5669,0.9216 -0.5687,0.8963 -0.5881,0.8604 -0.5899,0.8502 -0.5852,0.8149 -0.602,0.7791 -0.5926,0.7565 -0.6121,0.7207 -0.5941,0.6857 -0.5981,0.6629 -0.6042,0.6272 -0.5862,0.5923 -0.5941,0.5466 z m 9.5139,-62.527 v 0 l 0.8244,0.7339 c -0.2636,-0.252 -0.5495,-0.4943 -0.8244,-0.7339 z"
       style="fill:#20d0c2;stroke-width:2.59737539"
       inkscape:connector-curvature="0" />
    <path
       id="path5335"
       d="m 3615.9172,2140.4405 -44.8339,-37.6662 c -1.0179,-0.8551 -2.4582,-0.8913 -3.1902,-0.08 l -10.3167,11.4341 c -0.7319,0.8113 -0.4965,2.1829 0.5213,3.038 l 44.8338,37.6663 c 1.0179,0.8551 2.4583,0.8913 3.1902,0.08 l 10.3166,-11.4341 c 0.7324,-0.8086 0.4967,-2.1829 -0.5211,-3.038 z"
       style="fill:#ffffff;stroke-width:2.59737539"
       inkscape:connector-curvature="0" />
    <path
       id="path5337"
       d="m 3646.0778,2031.0967 c -6.159,3.9936 -11.2515,8.4918 -14.1574,12.4379 -15.2915,20.6902 -38.2262,53.969 -46.7643,66.4188 -0.8058,1.1712 -1.4788,2.171 -2.0088,2.9518 l -8.9587,-7.5264 c 1.0395,-1.5269 2.6439,-3.8945 4.6704,-6.8813 9.9557,-14.6223 30.1518,-44.1254 44.0564,-63.1001 3.9547,-5.4019 12.0036,-11.7559 21.3831,-16.4376 14.2578,-7.1316 31.5972,-10.3871 42.3417,-0.5167 l 0.8819,0.7125 0.8261,0.7441 1.5066,1.568 0.6805,0.8238 0.6386,0.8583 0.2479,0.4387 c -12.3289,-7.8664 -31.5401,-1.4331 -45.3364,7.521 z"
       style="fill:#15bdb1;stroke-width:2.59737539"
       inkscape:connector-curvature="0" />
    <g
       id="g5343"
       transform="matrix(2.6673551,0.06686875,0.43576632,2.540156,2505.9889,1401.2564)">
      <path
         id="path5339"
         d="m 243.012,154.793 c 0,0 -7.284,-1.751 -18.355,11.879 -11.076,13.63 -13.782,25.745 -13.782,25.745 0,0 12.12,-2.702 25.75,-13.778 13.625,-11.076 11.879,-18.36 11.879,-18.36 l -2.319,-3.168 -3.168,-2.319 h -0.005 z"
         style="fill:#ffba1b"
         inkscape:connector-curvature="0" />
      <path
         id="path5341"
         d="m 270.032,133.681 69.9,1.048 -43.333,43.329 -52.331,-20.808 25.759,-23.565 z"
         style="fill:#ffba1b"
         inkscape:connector-curvature="0" />
    </g>
    <path
       id="path5345"
       d="m 3260.2619,1730.7172 -0.9027,1.2395 -0.9257,1.2616 -0.9301,1.2969 -0.952,1.309 -0.9597,1.3418 -0.9708,1.3542 v 0 l -0.9909,1.3763 -0.9976,1.3989 -1.0088,1.4113 v 0 l -1.0066,1.424 -1.0268,1.4463 -0.013,-10e-5 -1.0246,1.459 -1.0361,1.4687 -1.0361,1.4689 -1.0455,1.4914 -1.0457,1.4912 v 0 l -1.0432,1.504 -1.0456,1.4914 v 0 l -1.0434,1.5041 -1.0434,1.5039 v 0 l -1.0433,1.5041 -1.0322,1.4917 v 0 l -1.0322,1.4916 v 0 l -1.034,1.4815 v 0 l -1.0206,1.4819 v 0 l -1.0121,1.4694 v 0 l -1.0121,1.4694 v 0 l -1.0027,1.4468 -0.9916,1.4345 v 0 l -0.9827,1.4246 -0.9714,1.4122 9e-4,0.013 -0.9514,1.3899 v 0 l -0.9419,1.3675 -0.9224,1.3427 h -0.013 l -0.9134,1.3327 8e-4,0.013 -0.8929,1.2979 v 0 l -0.8709,1.2858 -0.853,1.2508 v 0 l -0.8348,1.2184 -0.8124,1.1936 v 0 l -0.7945,1.1588 v 0 l -0.7745,1.1365 v 0 l -0.7449,1.0916 v 0 l -0.7378,1.0564 -0.6825,1.0224 v 0 l -0.6795,0.977 v 0 l -0.635,0.9426 -0.013,-10e-5 -0.6193,0.895 v 0 l -0.5775,0.8606 9e-4,0.013 -0.5479,0.8159 -0.013,-10e-5 -0.5188,0.7685 v 0 l -0.4894,0.7238 -0.013,-10e-5 -0.4487,0.6666 v 0 l -0.4223,0.6192 v 0 l -0.3816,0.5621 -0.3521,0.5172 v 0 l -0.3143,0.4601 v 0 l -0.2734,0.4028 v 0 l -0.2355,0.3457 -0.1953,0.2859 v 0 l -0.1573,0.2288 v 0 l -0.1077,0.1617 v 0 l -0.069,0.092 -0.013,-10e-5 -0.018,0.035 v 0 l 19.0779,16.0279 19.0904,16.0384 c 0,0 42.8613,-35.8978 66.9705,-57.748 12.5795,-11.4025 27.8865,-48.459 8.6322,-63.2394 -0.2878,-0.2526 -0.5625,-0.4921 -0.8502,-0.7448 -0.2989,-0.24 -0.5826,-0.4697 -0.8775,-0.6871 v 0 c -0.297,-0.23 -0.5899,-0.4346 -0.8963,-0.6421 -0.3065,-0.2075 -0.6077,-0.3996 -0.9227,-0.5948 v 0 c -0.3128,-0.1822 -0.6261,-0.3672 -0.9393,-0.5369 v 0 c -0.3245,-0.1725 -0.6351,-0.3422 -0.9689,-0.4922 v 0 c -0.3329,-0.1601 -0.6529,-0.3072 -0.9846,-0.4445 v 0 l -0.9985,-0.3868 c -0.3423,-0.1376 -0.6803,-0.2498 -1.0298,-0.3521 l -1.046,-0.307 v 0 l -1.051,-0.2589 v 0 l -1.0694,-0.2268 v 0 c -0.354,-0.067 -0.7215,-0.1343 -1.0872,-0.1915 l -0.013,-10e-5 -1.1031,-0.1443 -1.1088,-0.1 -1.1263,-0.063 v 0 l -1.1336,-0.029 v 0 l -1.1391,0.018 -9e-4,-0.013 -1.1571,0.052 v 0 l -1.1616,0.087 v 0 l -1.1709,0.1102 -1.1784,0.1446 -1.1721,0.1806 v 0 l -1.1789,0.2032 -1.1861,0.2383 -1.1822,0.2612 -1.1894,0.2965 -1.1825,0.3219 -1.1918,0.3444 -1.1724,0.3804 v 0 l -1.184,0.3902 v 0 l -1.1662,0.4159 -1.1624,0.4387 v 0 l -1.1585,0.4617 -1.1545,0.4845 -1.1417,0.4974 v 0 l -1.1378,0.5203 -1.1204,0.5435 -1.1077,0.5565 -1.0921,0.5695 -1.0904,0.5798 -1.0642,0.593 -1.0492,0.6034 v 0 l -1.0362,0.6165 -1.0207,0.6295 -0.9951,0.6402 -0.9817,0.6405 -0.9555,0.654 -0.9399,0.6669 -0.9027,0.6678 -0.8919,0.6681 -0.8663,0.6789 -0.8396,0.6795 -0.8155,0.6802 -0.7799,0.6709 -0.7542,0.6817 -0.7301,0.6823 -0.6946,0.6731 -0.6573,0.674 -0.6353,0.6618 -0.5848,0.6632 -0.5629,0.6511 -0.5167,0.6421 -0.4882,0.653 z m 62.8749,-17.699 v 0 l -0.8775,-0.6872 c 0.2949,0.2172 0.5808,0.4597 0.8775,0.6872 z"
       style="fill:#20d0c2;stroke-width:2.59737539"
       inkscape:connector-curvature="0" />
    <path
       id="path5347"
       d="m 3208.4662,1798.1202 44.834,37.6664 c 1.0178,0.855 1.2531,2.2266 0.5211,3.038 l -10.3166,11.434 c -0.7319,0.8112 -2.1701,0.7878 -3.188,-0.067 l -44.8446,-37.6666 c -1.0177,-0.855 -1.2531,-2.2268 -0.5211,-3.038 l 10.3166,-11.434 c 0.732,-0.8113 2.1723,-0.7751 3.1901,0.08 z"
       style="fill:#ffffff;stroke-width:2.59737539"
       inkscape:connector-curvature="0" />
    <path
       id="path5349"
       d="m 3316.5569,1754.2542 c -3.2515,6.4363 -7.1679,11.9226 -10.8167,15.2532 -19.1331,17.4628 -50.1359,43.9633 -61.7315,53.825 -1.1027,0.941 -2.0227,1.7248 -2.7518,2.3363 l 8.9432,7.5133 c 1.4376,-1.2032 3.6444,-3.0625 6.4206,-5.4109 13.6519,-11.5147 41.1452,-34.8784 58.7062,-50.7922 4.9898,-4.5237 10.4149,-13.0908 13.9294,-22.6997 5.3579,-14.6086 6.3131,-31.6291 -5.2867,-40.5396 l -0.8501,-0.7447 -0.8775,-0.6871 -1.8168,-1.2242 -0.9394,-0.537 -0.9688,-0.4921 -0.4861,-0.1867 c 9.7732,10.7109 5.7983,29.9446 -1.4801,44.366 v 0.021 z"
       style="fill:#15bdb1;stroke-width:2.59737539"
       inkscape:connector-curvature="0" />
    <path
       id="path5351"
       d="m 3430.8659,2004.9769 -57.8781,-48.6337 -38.0954,42.2214 c -5.7106,6.3291 -3.8892,16.947 4.0496,23.6058 l 29.0513,24.4068 c 7.9254,6.6585 19.0883,6.9382 24.7877,0.6215 l 38.0956,-42.2215 z"
       style="fill:#20d0c2;stroke-width:2.59737539"
       inkscape:connector-curvature="0" />
    <g
       id="g5369"
       transform="matrix(4.562053,2.6492386,3.1910688,3.6315373,1222.5536,478.60006)">
      <path
         id="path5353"
         d="m 235.266,345.152 c 3.496,0 6.332,2.836 6.332,6.332 0,3.496 -2.836,6.337 -6.332,6.337 -3.501,0 -6.337,-2.836 -6.337,-6.337 0,-3.497 2.836,-6.332 6.337,-6.332 z"
         style="fill:#ffffff"
         inkscape:connector-curvature="0" />
      <path
         id="path5355"
         d="m 183.411,285.505 c 0.702,0 1.266,0.568 1.266,1.266 0,0.702 -0.568,1.266 -1.266,1.266 -0.702,0 -1.266,-0.568 -1.266,-1.266 10e-4,-0.703 0.569,-1.266 1.266,-1.266 z"
         style="fill:#ffffff"
         inkscape:connector-curvature="0" />
      <path
         id="path5357"
         d="m 160.609,291.546 c 1.991,0 3.607,1.617 3.607,3.607 0,1.99 -1.617,3.607 -3.607,3.607 -1.99,0 -3.607,-1.617 -3.607,-3.607 0,-1.99 1.616,-3.607 3.607,-3.607 z"
         style="fill:#ffffff"
         inkscape:connector-curvature="0" />
      <path
         id="path5359"
         d="m 100.084,318.64 c 3.552,0 6.429,2.878 6.429,6.429 0,3.552 -2.877,6.434 -6.429,6.434 -3.552,0 -6.434,-2.878 -6.434,-6.434 0,-3.552 2.878,-6.429 6.434,-6.429 z"
         style="fill:#ffffff"
         inkscape:connector-curvature="0" />
      <path
         id="path5361"
         d="m 192.672,274.193 c 1.94,0 3.51,1.57 3.51,3.51 0,1.935 -1.57,3.51 -3.51,3.51 -1.94,0 -3.51,-1.57 -3.51,-3.51 0,-1.939 1.57,-3.51 3.51,-3.51 z"
         style="fill:#ffffff"
         inkscape:connector-curvature="0" />
      <path
         id="path5363"
         d="m 209.046,386.083 c 2.587,0 4.679,2.097 4.679,4.679 0,2.587 -2.092,4.679 -4.679,4.679 -2.582,0 -4.679,-2.092 -4.679,-4.679 0,-2.582 2.097,-4.679 4.679,-4.679 z"
         style="fill:#ffffff"
         inkscape:connector-curvature="0" />
      <path
         id="path5365"
         d="m 237.211,329.166 c 1.344,0 2.439,1.09 2.439,2.434 0,1.344 -1.09,2.439 -2.439,2.439 -1.344,0 -2.434,-1.09 -2.434,-2.439 0,-1.344 1.09,-2.434 2.434,-2.434 z"
         style="fill:#ffffff"
         inkscape:connector-curvature="0" />
      <path
         id="path5367"
         d="m 237.00307,470.7375 c -2.827,-2.06 -5.986,-3.473 -9.261,-4.226 3.095,-8.087 1.386,-17.593 -5.131,-24.115 -6.328,-6.332 -15.482,-8.129 -23.413,-5.39 4.014,-7.76 2.771,-17.537 -3.737,-24.045 -1.709,-1.704 -3.635,-3.044 -5.69,-4.028 6.171,-6.323 7.108,-15.847 2.808,-23.145 2.956,-0.85 5.746,-2.439 8.074,-4.767 4.85,-4.85 6.494,-11.695 4.928,-17.898 3.723,-0.259 7.372,-1.806 10.212,-4.651 2.425,-2.425 3.907,-5.432 4.452,-8.572 2.023,-0.573 3.935,-1.658 5.533,-3.252 3.302,-3.302 4.416,-7.958 3.353,-12.18 2.531,-0.176 4.411,-0.633 6.947,-3.164 2.536,-2.536 5.713,-8.882 1.69,-13.75 l 64.741,-83.729 -7.339,-7.339 -7.339,-7.339 -85.872,63.965 c -3.894,-1.492 -8.466,-0.67 -11.607,2.466 -1.935,1.935 -2.988,4.416 -3.164,6.947 -4.222,-1.067 -8.877,0.051 -12.175,3.353 -1.598,1.593 -2.679,3.506 -3.256,5.533 -3.141,0.545 -6.148,2.028 -8.572,4.453 -2.845,2.845 -4.392,6.489 -4.651,10.212 -6.203,-1.561 -13.048,0.079 -17.898,4.933 -2.406,2.402 -4.023,5.298 -4.85,8.365 -7.173,-3.755 -16.226,-2.67 -22.313,3.27 -0.984,-2.06 -2.323,-3.986 -4.02801,-5.69 -6.508,-6.508 -16.285996,-7.75 -24.049996,-3.737 2.739,-7.93 0.947,-17.08 -5.385,-23.413 -6.522002,-6.522 -16.027002,-8.231 -24.115002,-5.131 -0.757,-3.275 -2.166,-6.429 -4.226,-9.261 3.977,-1.589 7.699,-3.995 10.919,-7.215 12.725,-12.725 12.725,-33.357 0,-46.081 -12.512,-12.512 -32.669,-12.72 -45.439,-0.628 -0.105,3.018 -0.17,6.038 -0.17,9.078 0,141.385 114.615008,256 256.000008,256 8.212,0 16.337,-0.393 24.35,-1.15 13.57,-32.558 -27.925,-60.788 -53.116,-35.592 -3.219,3.219 -5.626,6.942 -7.215,10.923 z"
         style="fill:#ffffff"
         inkscape:connector-curvature="0" />
    </g>
    <path
       id="path5371"
       d="m 3818.4624,2822.3707 c -19.6463,-15.1104 -38.7198,-28.7565 -56.1872,-40.3095 -11.9999,-21.1426 -50.6411,-60.3779 -101.6762,-101.6726 -49.5522,-40.0941 -97.3785,-71.2648 -124.8966,-82.6175 -6.7235,-17.4792 -44.1043,-56.4483 -95.0528,-97.6679 -13.3628,-10.8061 -26.542,-20.8695 -39.1598,-29.9826 7.83,-6.4409 -18.7279,-38.6244 -62.1043,-76.7835 10.81,4.8539 18.4639,6.5685 21.6035,4.3476 6.5409,-4.6268 -8.093,-25.1468 -35.3764,-51.9619 16.2444,9.0706 27.976,13.2488 31.7898,10.5212 3.2705,-2.3134 0.3282,-9.2841 -7.3445,-19.2598 7.4263,3.3537 12.6843,4.543 14.8524,3.0332 4.4532,-3.1501 -5.5204,-17.1194 -24.0772,-35.3629 36.5739,20.4329 28.222,-1.9487 -15.169,-38.3997 l 25.7916,-130.9518 -43.4281,119.6311 c 40.6195,36.4051 43.9626,51.0165 8.3379,31.4138 40.6856,35.7827 40.2179,50.5137 5.3838,28.5709 39.8046,38.4659 17.5053,33.815 -17.7926,12.0104 41.2597,43.8232 56.4798,70.9149 12.8054,50.2692 60.6732,51.198 76.1237,78.6846 62.5184,78.9837 95.1007,70.3238 138.1211,118.2495 141.1253,138.4961 64.6387,30.4611 174.0822,108.7669 229.1169,181.5823 0,0 46.7694,29.5027 91.5665,68.301 0,0 -22.7304,-67.6504 131.0072,44.574 114.6719,83.7068 164.597,147.2029 182.5333,174.0411 6.9208,3.8477 13.7596,7.6228 20.5355,11.3296 -43.2196,-82.1349 -325.0884,-296.6153 -359.0457,-272.5648 -4.3415,3.0707 -3.3238,10.1623 2.2833,20.3944 z"
       style="fill:#dfe1e3;stroke-width:2.82933617"
       inkscape:connector-curvature="0" />
    <g
       id="g5385"
       transform="matrix(5.9937372,0.1293177,0.15576614,5.9483159,-1141.4103,-1360.2866)" />
    <g
       id="g5387" />
    <g
       id="g5389" />
    <g
       id="g5391" />
    <g
       id="g5393" />
    <g
       id="g5395" />
    <g
       id="g5397" />
    <g
       id="g5399" />
    <g
       id="g5401" />
    <g
       id="g5403" />
    <g
       id="g5405" />
    <g
       id="g5407" />
    <g
       id="g5409" />
    <g
       id="g5411" />
    <g
       id="g5413" />
    <g
       id="g5415" />
  </g>
</svg>
